<svg id="Capa_1" data-name="Capa 1" xmlns="http://www.w3.org/2000/svg" viewBox="0 0 377 426.47"><defs><style>.cls-1{fill:#fff;}</style></defs><path class="cls-1" d="M64.71,272.62h0c0-22.28,5.4-43.9,16.87-62.84,37.87-67.6,133.17-84.47,212.24-39.88l-20.29,33.82,164.93-15.57L370.19,36.76,351.26,69.87C258.66,17.16,140.4,49,87.69,141.51a191.11,191.11,0,0,0-23,131.11Z" transform="translate(-61.5 -36.76)"/><path class="cls-1" d="M435.23,228c0,21.63-4.73,43.23-15.53,62.18-39.21,66.9-134.49,84.49-212.91,39.87l19.6-33.81L61.5,312.51l68.24,150.73,18.94-32.44c92.59,52.7,210.85,20.95,263.59-71.65a188.72,188.72,0,0,0,23-131.11Z" transform="translate(-61.5 -36.76)"/></svg>