<svg id="Capa_1" data-name="Capa 1" xmlns="http://www.w3.org/2000/svg" viewBox="0 0 422.38 460.77"><defs><style>.cls-1{fill:#fff;}</style></defs><path class="cls-1" d="M382.17,19C388.8,20.77,395.64,22,402,24.4a76.62,76.62,0,0,1,48.41,80.13c-4.05,34.5-30.9,62.45-65.22,67.21-24.12,3.35-45.36-3.44-63.44-19.85-1.22-1.11-2.39-2.27-3.59-3.39a5,5,0,0,0-.88-.43L178.82,227a78.5,78.5,0,0,1,0,44.74l138.79,79.11c16.08-16.56,35.48-25.11,58.41-24.62a74,74,0,0,1,48.42,18.84,76.79,76.79,0,0,1-74.14,131c-30.92-10.09-60.64-43.51-51.09-91.43q-18-10.26-36.14-20.62-50.18-28.6-100.31-57.28c-2.94-1.69-4.68-1.55-7.34.66-23,19.15-49.1,24.22-77,13.71C50.2,310.42,33.57,289.23,29.3,259.2c-4.51-31.74,11.54-62.29,40.09-77.63a76.48,76.48,0,0,1,86.09,9.77c1.85,1.61,3.2,3.06,6.12,1.38q68.63-39.34,137.51-78.51c-.54-4.58-1.36-9.14-1.57-13.72C295.73,59.21,323,26,363.89,19.73A11.8,11.8,0,0,0,366,19Z" transform="translate(-28.55 -19)"/></svg>