<svg id="Capa_1" data-name="Capa 1" xmlns="http://www.w3.org/2000/svg" viewBox="0 0 408.82 408.82"><defs><style>.cls-1{fill:#fff;}</style></defs><path class="cls-1" d="M276.55,465.4h-52.7c-5.79-2.07-8.68-6.31-10-12.21-3.1-13.45-6.64-26.79-9.77-40.23a6.17,6.17,0,0,0-4.4-4.9c-6.55-2.53-13-5.24-19.42-8.18a5.76,5.76,0,0,0-6.18.39c-9.84,6.06-19.77,12-29.7,17.88-7.45,4.45-12.39,3.83-18.54-2.3q-15.12-15.08-30.18-30.18c-6.34-6.35-6.94-11.15-2.35-18.83,6-10,12.09-20,17.93-30.13a6.49,6.49,0,0,0,.28-4.94c-2.67-6.92-5.76-13.68-8.48-20.59a5.58,5.58,0,0,0-4.38-3.92c-13.55-3.21-27-6.74-40.61-9.87-5.9-1.36-10.15-4.26-12.21-10v-52.7c2.06-5.8,6.32-8.68,12.22-10.05,13.46-3.12,26.82-6.63,40.26-9.83a5.79,5.79,0,0,0,4.72-4.06c2.08-5.74,4.37-11.41,6.91-17a5.46,5.46,0,0,0-.35-5.83c-6.85-11.23-13.59-22.54-20.34-33.84-4.57-7.66-4-12.59,2.32-18.89q14.94-15,29.93-29.92c6.57-6.56,11.14-7.11,19.16-2.31,10.73,6.42,21.48,12.78,32.11,19.35,2.35,1.45,4.14,1.4,6.58.28,6.74-3.11,13.6-6,20.51-8.72a6,6,0,0,0,4.16-4.64c3.27-13.84,6.74-27.62,10.17-41.42,2-8,6-11.19,14.11-11.2q22-.06,43.92,0c7.95,0,12.08,3.22,14,10.86,3.45,13.79,6.92,27.58,10.18,41.41a6.13,6.13,0,0,0,4.28,5c6.44,2.45,12.8,5.15,19.09,8a5.84,5.84,0,0,0,6.22-.36c10.42-6.41,20.95-12.64,31.46-18.89,7.39-4.39,12.11-3.8,18.19,2.25q15.27,15.23,30.49,30.49c6.2,6.22,6.78,10.94,2.25,18.53-6.21,10.38-12.36,20.8-18.73,31.08-1.46,2.37-1.37,4.18-.27,6.6q4.29,9.41,8,19.08a5.86,5.86,0,0,0,4.68,4.11c14,3.32,27.88,6.79,41.79,10.27,7.46,1.87,10.73,6,10.76,13.68q.06,22.17,0,44.32c0,7.92-3.23,12-10.94,13.93-13.92,3.47-27.84,6.94-41.79,10.27a5.57,5.57,0,0,0-4.42,3.88q-3.72,9.66-8,19.1a5.47,5.47,0,0,0,.27,5.83c6.34,10.3,12.52,20.7,18.71,31.1,4.41,7.38,3.85,12.13-2.2,18.21q-15.19,15.28-30.47,30.5c-6.15,6.13-11.12,6.73-18.58,2.28-10.28-6.13-20.49-12.38-30.84-18.37a6.51,6.51,0,0,0-5-.34q-10.74,4.21-21.23,9.06a7.1,7.1,0,0,0-3.53,4.05c-3.51,13.5-6.9,27-10,40.62C285.23,459.07,282.34,463.33,276.55,465.4ZM334,260.85c-.12-46.13-37.92-83.8-84-83.68s-83.8,37.93-83.67,84,37.92,83.81,84,83.68S334.15,306.89,334,260.85Z" transform="translate(-45.8 -56.58)"/></svg>