<svg id="Capa_1" data-name="Capa 1" xmlns="http://www.w3.org/2000/svg" viewBox="0 0 458.1 748.96"><defs><style>.cls-1{fill:#878787;}</style></defs><path class="cls-1" d="M735.4,205.2c-20.5-6.9-40.9-13.7-61.4-20.5-59.8-20-119.8-39.7-179.5-60-17.4-5.9-29.7,4.7-28.6,20.3.9,12.6.2,25.3.2,38,0,8.6-.1,8.7-8.6,8.7H304.3c-10.3,0-10.3,0-10.3,10.3V774.9c0,9,.1,9.1,9,9.1,51.7,0,103.4.1,155.1-.1,6.2,0,8.3,1.8,8.2,8.1-.3,20.1-.4,40.3.1,60.4a24.1,24.1,0,0,0,5.3,13.9c5.9,7.2,14,6.5,22.3,3.8q121.35-40.5,242.6-81c11.6-3.9,15.5-9.6,15.5-22.5V227.9C752.1,214.7,748.2,209.4,735.4,205.2ZM466.1,736.3c0,10.2,0,10.3-10.2,10.3H340.7c-9.6,0-9.6-.1-9.6-9.6V238.2c0-9.3,0-9.4,9.2-9.4H456.7c9.3,0,9.4.1,9.4,9.3V736.3Zm107-227.6c-7.1,11-17.7,11.2-24-.3-10.7-19.8-10.8-40.3-.2-60.1,6.4-12,17.8-11.5,24.7.2,5.4,9.2,7,19.4,7.2,30.6C580.6,489,579.1,499.5,573.1,508.7Z" transform="translate(-294 -123.04)"/><path class="cls-1" d="M294,201.9v0Z" transform="translate(-294 -123.04)"/><path class="cls-1" d="M466.1,488.5v0Z" transform="translate(-294 -123.04)"/></svg>