<svg id="Capa_1" data-name="Capa 1" xmlns="http://www.w3.org/2000/svg" viewBox="0 0 501.41 435.2"><defs><style>.cls-1{fill:#fff;}</style></defs><path class="cls-1" d="M172.48,213.62h0a25.42,25.42,0,0,0-35.34-.61l-20.41,19s0,0,0,0C127,147.58,198.64,83.6,283.1,83.6c89.6,0,166.4,74.24,166.4,166.4S372.7,416.4,285.66,416.4c-38.61,0-77.21-14.38-106.79-38.62a25.42,25.42,0,0,0-33.46,1.08l-1.16,1.08a25.41,25.41,0,0,0,1.12,38.18,217.29,217.29,0,0,0,355.28-163c2.8-122.24-96.69-223.49-219-222.71-114.55.74-208.52,90-216.18,199.65a0,0,0,0,1,0,0L43.14,211.11a25.43,25.43,0,0,0-36,1.21l-1,1.08a25.44,25.44,0,0,0,1.32,36l83.63,77.36h0L172,250.05A25.43,25.43,0,0,0,172.48,213.62Z" transform="translate(0.7 -32.4)"/></svg>